# xmcd CD database file generated by Grip 2.95
# 
# Track frame offsets:
#       150
#       15285
#       31216
#       48247
#       75666
#       102607
#       124489
#       145639
#       180178
#       195530
#       225610
# 
# Disc length: 3294 seconds
# 
# Revision: 3
# Processed by: cddbd v1.4b41PL1 Copyright (c) Steve Scherf et al.
# Submitted via: Grip 2.95
# 
DISCID=800cdc0b
DTITLE=Daniel Castro - No Surrender
DYEAR=1900
DGENRE=
TTITLE0=On that telephone
TTITLE1=Hear that guitar ring
TTITLE2=Talk about my baby
TTITLE3=Got my mojo working
TTITLE4=Empty arms
TTITLE5=Drivin' wheel
TTITLE6=Cold-hearted woman
TTITLE7=I'll play the blues for you
TTITLE8=Tryin to call my baby
TTITLE9=Funky for the "Ice Man"
TTITLE10=Dos palomas
EXTD=
EXTT0=
EXTT1=
EXTT2=
EXTT3=
EXTT4=
EXTT5=
EXTT6=
EXTT7=
EXTT8=
EXTT9=
EXTT10=
PLAYORDER=
